<?xml version="1.0" encoding="UTF-8"?>
<svg version="1.1" xmlns="http://www.w3.org/2000/svg" viewBox="322 328 608 608">

<path d="M0 0 C0.75226616 -0.00407553 1.50453232 -0.00815105 2.27959442 -0.01235008 C6.27932947 -0.033071 10.27903187 -0.04741944 14.27880859 -0.05688477 C17.50524401 -0.06563807 20.73123366 -0.08627503 23.95751953 -0.1184082 C41.11916698 -0.28531424 58.04114332 -0.02529704 75.09375 2.0703125 C75.77236336 2.15259283 76.45097672 2.23487316 77.15015411 2.31964684 C85.30063012 3.33397286 93.05558653 4.89462578 100.921875 7.23828125 C102.94068434 7.72590498 104.96108931 8.20707766 106.984375 8.67578125 C119.33252047 11.77079446 130.2902574 16.66303972 137.921875 27.23828125 C139.28426576 29.96306277 139.04157458 32.1066898 139.03540039 35.15673828 C139.03532486 36.39787384 139.03524933 37.6390094 139.03517151 38.91775513 C139.0300645 40.27720174 139.0248485 41.63664794 139.01953125 42.99609375 C139.01766642 44.38329009 139.01624282 45.77048709 139.01524353 47.15768433 C139.01142348 50.81062637 139.00159755 54.46352873 138.99053955 58.11645508 C138.98031444 61.84325626 138.97574355 65.57006384 138.97070312 69.296875 C138.95997483 76.61069519 138.94290454 83.92448266 138.921875 91.23828125 C139.52891769 91.43562866 140.13596039 91.63297607 140.76139832 91.83630371 C141.56354263 92.09979614 142.36568695 92.36328857 143.19213867 92.63476562 C143.98480637 92.89398804 144.77747406 93.15321045 145.59416199 93.42028809 C148.95062784 94.59980038 152.07518231 96.11258814 155.234375 97.73828125 C155.90315674 98.07867432 156.57193848 98.41906738 157.26098633 98.76977539 C159.48815033 99.91324794 161.70628289 101.07254901 163.921875 102.23828125 C164.7375293 102.66737793 165.55318359 103.09647461 166.39355469 103.53857422 C181.98542268 111.79993711 196.08382576 121.31350553 209.921875 132.23828125 C210.84742188 132.96789062 211.77296875 133.6975 212.7265625 134.44921875 C262.74469885 174.60870793 300.04253552 235.90420645 307.109375 300.30078125 C309.48784329 325.21334887 310.39921613 353.3942443 303.62890625 377.640625 C302.97370453 380.04785785 302.52117127 382.40498228 302.109375 384.86328125 C300.55276197 392.87790868 297.64868896 400.56242737 294.921875 408.23828125 C294.50292969 409.43195313 294.08398438 410.625625 293.65234375 411.85546875 C286.56870924 430.73089364 276.44907924 448.7337314 264.921875 465.23828125 C264.19871094 466.28628906 263.47554687 467.33429688 262.73046875 468.4140625 C257.44463385 475.76361195 251.38754931 482.27511318 245.15625 488.81640625 C242.70347042 491.39252561 240.34325352 494.02054887 238.046875 496.73828125 C235.28610199 499.93967638 232.28411153 502.68228979 229.05859375 505.41015625 C226.78531879 507.35511545 224.61111851 509.3868878 222.421875 511.42578125 C202.71022553 529.1065335 179.60151677 542.62935859 155.921875 554.23828125 C154.89247803 554.7494751 154.89247803 554.7494751 153.84228516 555.27099609 C117.42701433 573.121992 73.97573074 582.19235805 33.6171875 582.4765625 C32.46779694 582.48635635 31.31840637 582.49615021 30.13418579 582.50624084 C-16.47223529 582.82198014 -16.47223529 582.82198014 -39.078125 578.23828125 C-41.38535424 577.80955971 -43.69264782 577.38118436 -46 576.953125 C-91.43511979 568.1575125 -134.53504167 549.77523764 -171.078125 521.23828125 C-171.90860352 520.59463623 -171.90860352 520.59463623 -172.75585938 519.93798828 C-189.54348907 506.85351219 -206.38390216 491.35155727 -219.078125 474.23828125 C-220.05845703 473.00078125 -220.05845703 473.00078125 -221.05859375 471.73828125 C-240.78014944 446.44870893 -254.41020652 418.23258123 -263.39453125 387.54882812 C-264.05493955 385.31664806 -264.75254608 383.09874059 -265.453125 380.87890625 C-276.28350483 345.07517807 -273.28153743 307.12821065 -265.078125 271.23828125 C-264.8203125 270.08328125 -264.5625 268.92828125 -264.296875 267.73828125 C-262.99760568 262.20226414 -261.2753369 257.10362793 -259.13085938 251.84155273 C-258.1721721 249.47084717 -257.25713588 247.08960311 -256.359375 244.6953125 C-246.89303697 219.79612051 -233.69368984 197.04934646 -217.078125 176.23828125 C-216.40402588 175.38008789 -215.72992676 174.52189453 -215.03540039 173.63769531 C-209.78555906 167.06204162 -204.14452499 160.99245865 -198.17675781 155.07617188 C-196.70399977 153.61414964 -195.24227455 152.14170637 -193.78125 150.66796875 C-187.54669276 144.42460923 -181.00017432 138.71515696 -174.078125 133.23828125 C-172.38875808 131.86557566 -170.70096819 130.49092402 -169.015625 129.11328125 C-154.49825315 117.29986835 -138.02085864 107.49092917 -121.328125 99.11328125 C-120.43641602 98.66436523 -119.54470703 98.21544922 -118.62597656 97.75292969 C-113.22058532 95.10211117 -107.80460899 93.08079398 -102.078125 91.23828125 C-102.08700745 90.51466904 -102.09588989 89.79105682 -102.1050415 89.04551697 C-102.18540276 82.20478219 -102.24619844 75.36411855 -102.28537369 68.52303219 C-102.30619191 65.00644119 -102.33440197 61.49024232 -102.37988281 57.97387695 C-102.43191634 53.92525607 -102.4511177 49.87704296 -102.46875 45.828125 C-102.48939514 44.57370102 -102.51004028 43.31927704 -102.53131104 42.02684021 C-102.53338209 33.93317816 -101.66873332 29.52659072 -96.4296875 23.26953125 C-72.12150752 1.71114539 -30.72591385 0.1441752 0 0 Z " fill="#23555C" transform="translate(609.078125,340.76171875)"/>
<path d="M0 0 C16.17 0 32.34 0 49 0 C49 14.52 49 29.04 49 44 C53.29 44 57.58 44 62 44 C71.47525962 45.1280071 80.44515736 47.24697556 89.625 49.8125 C90.85734375 50.14314453 92.0896875 50.47378906 93.359375 50.81445312 C100.96028982 52.91640462 107.91566822 55.55913469 115 59 C116.69993947 59.76720782 118.40175417 60.53027487 120.10546875 61.2890625 C148.00693256 74.01039883 148.00693256 74.01039883 154 83 C153.00878906 85.88476562 153.00878906 85.88476562 151.265625 89.40625 C150.80196281 90.3561808 150.80196281 90.3561808 150.32893372 91.32530212 C149.31620917 93.39055577 148.2836365 95.44514386 147.25 97.5 C146.55430893 98.90716506 145.85956764 100.31480008 145.16577148 101.72290039 C139.96190042 112.24438958 134.58860922 122.67751003 129 133 C124.64827998 132.09641246 121.54811851 129.79155482 117.9375 127.3125 C110.24508206 122.17644602 102.2154666 117.79159481 94 113.5625 C92.85523193 112.97186768 91.71046387 112.38123535 90.53100586 111.77270508 C78.33325131 105.39741696 78.33325131 105.39741696 65.25 101.375 C62.19374268 100.74750756 59.37575744 100.15287026 56.484375 98.9765625 C53.49533174 97.70226193 53.49533174 97.70226193 48 97 C48 122.41 48 147.82 48 174 C49.98 174 51.96 174 54 174 C56.58020813 174.54189872 59.08440359 175.12924984 61.625 175.8125 C63.04683984 176.18242683 64.46871516 176.55221733 65.890625 176.921875 C66.58736328 177.10556641 67.28410156 177.28925781 68.00195312 177.47851562 C70.78526257 178.20495123 73.58017974 178.8818961 76.375 179.5625 C101.34613993 185.83884834 126.10181821 195.28124044 146 212 C146.81082031 212.66515625 147.62164063 213.3303125 148.45703125 214.015625 C161.90850818 225.50413679 172.11140442 241.61379993 176 259 C176.17055908 259.76038574 176.34111816 260.52077148 176.5168457 261.30419922 C178.8515081 274.33064805 177.85937082 289.38603911 174 302 C173.73316406 302.92167969 173.46632813 303.84335937 173.19140625 304.79296875 C169.61538851 315.8071034 163.79459145 326.38092325 155 334 C154.195625 334.804375 153.39125 335.60875 152.5625 336.4375 C151.716875 337.283125 150.87125 338.12875 150 339 C149.52046875 339.56074219 149.0409375 340.12148438 148.546875 340.69921875 C138.21811777 352.16786135 122.91919519 358.89774414 109 365 C107.86304688 365.56267578 107.86304688 365.56267578 106.703125 366.13671875 C96.06429041 371.35304656 83.94017026 373.87730295 72.3125 375.75 C71.6023877 375.86545166 70.89227539 375.98090332 70.16064453 376.09985352 C62.76537713 377.19609511 55.52588552 377.4982743 48 378 C47.67 389.88 47.34 401.76 47 414 C31.49 414 15.98 414 0 414 C0 401.79 0 389.58 0 377 C-4.29 377 -8.58 377 -13 377 C-16.448076 376.60113581 -19.73223245 376.15022866 -23.125 375.5 C-24.04385986 375.32694336 -24.96271973 375.15388672 -25.90942383 374.97558594 C-63.28753206 367.51428899 -97.27230261 352.0823267 -126 327 C-124.66882962 322.67369627 -122.9892944 318.61381903 -121.12841797 314.49853516 C-119.05876153 309.91591639 -117.06785955 305.29853022 -115.0625 300.6875 C-114.62083496 299.67220215 -114.17916992 298.6569043 -113.72412109 297.61083984 C-111.10630866 291.58126447 -108.53148173 285.53859623 -106.02734375 279.4609375 C-104.41981646 275.61020673 -102.71867197 271.80220167 -101 268 C-97.6432096 269.46670572 -95.39114608 271.35390601 -92.75 273.875 C-80.65652375 284.88996448 -67.53950217 293.55741452 -53 301 C-52.23284668 301.39848145 -51.46569336 301.79696289 -50.67529297 302.20751953 C-34.28344622 310.64848097 -18.05612546 315.13083026 0 319 C0 293.26 0 267.52 0 241 C-5.94 240.01 -5.94 240.01 -12 239 C-26.13044802 235.79934452 -39.70939576 231.77839225 -53 226 C-53.73476563 225.68272949 -54.46953125 225.36545898 -55.2265625 225.03857422 C-68.1188943 219.40379418 -79.42644211 212.78662976 -89.74609375 203.078125 C-91.98752052 200.94963121 -91.98752052 200.94963121 -94.5390625 199.046875 C-104.15870707 191.04577381 -110.27839093 177.76294297 -114 166 C-114.2784375 165.20207031 -114.556875 164.40414062 -114.84375 163.58203125 C-120.98303205 143.43040636 -116.78195675 120.53509122 -107.0625 102.2734375 C-96.8317125 83.9259131 -81.18189322 70.22275121 -63 60 C-62.29488281 59.60296875 -61.58976563 59.2059375 -60.86328125 58.796875 C-42.02010949 48.84199181 -21.1402893 44 0 44 C0 29.48 0 14.96 0 0 Z " fill="#FCFCFD" transform="translate(606,440)"/>
<path d="M0 0 C-3.52453921 2.34969281 -7.12444248 3.38125982 -11.125 4.625 C-20.49484833 7.64428925 -29.22477771 11.56531148 -38 16 C-38.94875 16.46921875 -39.8975 16.9384375 -40.875 17.421875 C-54.20185396 24.32908589 -66.63563818 33.24444844 -78 43 C-79.05012817 43.8695541 -80.10230417 44.73663956 -81.15625 45.6015625 C-95.17298476 57.13410576 -107.28882743 70.36862499 -118 85 C-118.4134668 85.55655273 -118.82693359 86.11310547 -119.25292969 86.68652344 C-125.76116429 95.45588182 -131.63271767 104.48951245 -137 114 C-137.39687012 114.70189453 -137.79374023 115.40378906 -138.20263672 116.12695312 C-159.90883471 154.94152693 -171.23692807 198.3350302 -172.6875 242.6875 C-172.71156921 243.40878082 -172.73563843 244.13006165 -172.76043701 244.87319946 C-173.22463636 259.69541664 -172.63326885 274.37338846 -170 289 C-172 288 -172 288 -173.08154297 285.3581543 C-173.46455566 284.19195557 -173.84756836 283.02575684 -174.2421875 281.82421875 C-174.45078903 281.1913797 -174.65939056 280.55854065 -174.87431335 279.90652466 C-175.55142454 277.83666889 -176.21464825 275.76275951 -176.875 273.6875 C-177.21348465 272.63264908 -177.21348465 272.63264908 -177.55880737 271.55648804 C-194.02882338 220.01567539 -188.62300765 166.65827363 -163.875 118.625 C-156.14342591 104.11668574 -146.69230682 90.46747745 -136 78 C-133.96198029 75.40615674 -131.93604576 72.80380294 -129.921875 70.19140625 C-127.81040132 67.78381126 -125.51497174 65.97768233 -123 64 C-120.5745668 61.6489666 -118.23078192 59.24639874 -115.921875 56.78125 C-89.68469601 29.22277423 -39.40360288 -0.91636286 0 0 Z " fill="#F6F8F8" transform="translate(563,437)"/>
<path d="M0 0 C18.21895967 3.31253812 36.45074979 8.57629469 48.43359375 23.82421875 C51.9772303 29.67305831 52.13558601 36.39648958 51 43 C46.42259487 54.04547759 37.52637036 60.42483997 26.8125 64.93359375 C17.42570584 68.4927532 10.52312855 69 0 69 C0 46.23 0 23.46 0 0 Z " fill="#26575E" transform="translate(653,691)"/>
<path d="M0 0 C0 22.11 0 44.22 0 67 C-13.24998231 63.68750442 -27.48302593 58.96606899 -35.40234375 46.85546875 C-39.13423583 39.69714195 -40.26225942 32.33847295 -38.38671875 24.40625 C-34.92202656 14.51585116 -27.94557124 8.90476719 -18.80859375 4.25390625 C-12.33062148 1.36179345 -7.13711528 0 0 0 Z " fill="#25565D" transform="translate(606,537)"/>
<path d="M0 0 C1.65125885 0.0001133 1.65125885 0.0001133 3.33587646 0.00022888 C4.51828918 0.00539017 5.7007019 0.01055145 6.91894531 0.01586914 C8.13406799 0.01728409 9.34919067 0.01869904 10.60113525 0.02015686 C14.48313862 0.02575551 18.36508437 0.0383078 22.24707031 0.05102539 C24.8785799 0.05604056 27.51009038 0.06060344 30.14160156 0.06469727 C36.59344415 0.0757245 43.04525311 0.09246131 49.49707031 0.11352539 C49.49707031 0.77352539 49.49707031 1.43352539 49.49707031 2.11352539 C48.59690186 2.18345703 47.6967334 2.25338867 46.76928711 2.32543945 C21.59124212 4.3256622 -0.91351713 7.67776037 -24.50292969 17.11352539 C-24.50292969 28.33352539 -24.50292969 39.55352539 -24.50292969 51.11352539 C-27.10167969 51.54665039 -29.70042969 51.97977539 -32.37792969 52.42602539 C-38.21401029 53.42335141 -43.82270417 54.59797867 -49.42480469 56.56274414 C-51.84579683 57.20439807 -54.00771216 57.14976619 -56.50292969 57.11352539 C-56.72600778 51.52703992 -56.88898324 45.94316188 -56.99731445 40.35327148 C-57.04248012 38.45372352 -57.10383138 36.55448685 -57.18188477 34.65600586 C-57.81435807 18.87310986 -57.81435807 18.87310986 -54.61328125 14.578125 C-52.26155203 12.99053835 -50.1804849 12.02603445 -47.50292969 11.11352539 C-46.03974668 10.39413979 -44.58063967 9.66633198 -43.12792969 8.92602539 C-33.57003907 4.9585991 -23.6057695 3.35584846 -13.44433594 1.76196289 C-9.81901084 1.23980666 -9.81901084 1.23980666 -7.6005249 0.58009338 C-5.02013632 0.00613769 -2.64397809 -0.00606417 0 0 Z " fill="#F7F8F9" transform="translate(592.5029296875,360.886474609375)"/>
<path d="M0 0 C2.31 0 4.62 0 7 0 C7 25.74 7 51.48 7 78 C5.35 77.67 3.7 77.34 2 77 C3.485 76.505 3.485 76.505 5 76 C4.67 51.58 4.34 27.16 4 2 C2.68 1.34 1.36 0.68 0 0 Z " fill="#31646A" transform="translate(599,681)"/>
<path d="M0 0 C11.55 0 23.1 0 35 0 C35 0.66 35 1.32 35 2 C22.79 2.99 10.58 3.98 -2 5 C-1.34 3.35 -0.68 1.7 0 0 Z " fill="#DFE6E7" transform="translate(607,361)"/>
<path d="M0 0 C-2.51116679 1.67411119 -4.16101568 2.50278638 -6.94921875 3.40234375 C-8.09874023 3.77842773 -8.09874023 3.77842773 -9.27148438 4.16210938 C-10.06876953 4.41798828 -10.86605469 4.67386719 -11.6875 4.9375 C-17.51651853 6.82577361 -23.2770281 8.80891933 -29 11 C-29 10.01 -29 9.02 -29 8 C-29.66 7.67 -30.32 7.34 -31 7 C-7.95602633 -0.40800135 -7.95602633 -0.40800135 0 0 Z " fill="#ECF1F2" transform="translate(563,437)"/>
<path d="M0 0 C0 3 0 3 0 3 Z M-3 3 C-2.34 3.33 -1.68 3.66 -1 4 C-5.39470848 9.57789923 -9.87526248 15.07236777 -15 20 C-15.66 19.34 -16.32 18.68 -17 18 C-12.38 13.05 -7.76 8.1 -3 3 Z " fill="#2F5D66" transform="translate(473,489)"/>
<path d="M0 0 C0.33 0 0.66 0 1 0 C1.125 6.75 1.125 6.75 0 9 C-0.66 9 -1.32 9 -2 9 C-2 10.32 -2 11.64 -2 13 C-2.66 13 -3.32 13 -4 13 C-4 13.66 -4 14.32 -4 15 C-4.66 15 -5.32 15 -6 15 C-4.40109514 9.80355921 -2.25861997 4.93387858 0 0 Z " fill="#35646D" transform="translate(754,533)"/>
<path d="M0 0 C-2.91086669 1.94057779 -5.04305699 2.75181737 -8.375 3.6875 C-9.77878906 4.09548828 -9.77878906 4.09548828 -11.2109375 4.51171875 C-14.15689166 5.02746703 -16.13515913 4.77611144 -19 4 C-13.08598549 0.81553065 -6.6951108 -0.34333902 0 0 Z " fill="#BCCCCE" transform="translate(563,437)"/>
<path d="M0 0 C0 0.99 0 1.98 0 3 C-3.3 3.33 -6.6 3.66 -10 4 C-10 3.01 -10 2.02 -10 1 C-6.59437148 0.22157062 -3.49234244 -0.09978121 0 0 Z " fill="#32656D" transform="translate(614,365)"/>
<path d="M0 0 C0.66 0.33 1.32 0.66 2 1 C-1.3810038 5.13621084 -4.66590534 8.81316569 -9 12 C-9.66 11.67 -10.32 11.34 -11 11 C-7.37 7.37 -3.74 3.74 0 0 Z " fill="#DEE6E8" transform="translate(520,516)"/>
<path d="M0 0 C0.99 0.66 1.98 1.32 3 2 C0.69 4.31 -1.62 6.62 -4 9 C-4.66 8.01 -5.32 7.02 -6 6 C-4.02 4.02 -2.04 2.04 0 0 Z " fill="#2A5C63" transform="translate(578,547)"/>
<path d="M0 0 C0.66 0.66 1.32 1.32 2 2 C-3.86516854 6.88764045 -3.86516854 6.88764045 -7 8 C-8.32 7.67 -9.64 7.34 -11 7 C-7.37 4.69 -3.74 2.38 0 0 Z " fill="#2F5F67" transform="translate(746,787)"/>
<path d="M0 0 C0 0.99 0 1.98 0 3 C-8.03571429 5.27678571 -8.03571429 5.27678571 -12 4 C-10.3767313 3.3291288 -8.75132422 2.66342971 -7.125 2 C-6.22007812 1.62875 -5.31515625 1.2575 -4.3828125 0.875 C-2 0 -2 0 0 0 Z " fill="#39666D" transform="translate(538,351)"/>
<path d="M0 0 C0 0.99 0 1.98 0 3 C-1.98 3.66 -3.96 4.32 -6 5 C-6 4.01 -6 3.02 -6 2 C-6.66 1.67 -7.32 1.34 -8 1 C-2.25 -1.125 -2.25 -1.125 0 0 Z " fill="#E1E8E9" transform="translate(540,443)"/>
<path d="M0 0 C0 0.99 0 1.98 0 3 C-0.99 3.66 -1.98 4.32 -3 5 C-3.73606499 8.56769552 -3.73606499 8.56769552 -4 12 C-4.33 12 -4.66 12 -5 12 C-5.08090971 10.37581255 -5.13914995 8.75048255 -5.1875 7.125 C-5.22230469 6.22007812 -5.25710938 5.31515625 -5.29296875 4.3828125 C-5.19628906 3.59648437 -5.09960938 2.81015625 -5 2 C-2 0 -2 0 0 0 Z " fill="#2E616A" transform="translate(575,375)"/>
<path d="M0 0 C0.33 0 0.66 0 1 0 C2.23076923 6.4 2.23076923 6.4 1.0625 9.4375 C0.711875 9.953125 0.36125 10.46875 0 11 C-0.66 11 -1.32 11 -2 11 C-1.34 7.37 -0.68 3.74 0 0 Z " fill="#366269" transform="translate(781,734)"/>
<path d="M0 0 C0.33 0 0.66 0 1 0 C1.91457003 5.56157448 2.32086397 9.675665 0 15 C-0.33 15 -0.66 15 -1 15 C-1.09038099 9.84828377 -0.84681133 5.08086796 0 0 Z " fill="#C0CFD1" transform="translate(916,690)"/>
<path d="M0 0 C0.66 0.99 1.32 1.98 2 3 C0.68 5.31 -0.64 7.62 -2 10 C-2.66 10 -3.32 10 -4 10 C-2.8905928 6.51329166 -1.73662334 3.22515763 0 0 Z " fill="#316067" transform="translate(363,562)"/>
<path d="M0 0 C1.98 0 3.96 0 6 0 C5.67 0.99 5.34 1.98 5 3 C1.7 3 -1.6 3 -5 3 C-5 2.67 -5 2.34 -5 2 C-3.35 1.67 -1.7 1.34 0 1 C0 0.67 0 0.34 0 0 Z " fill="#2C5E66" transform="translate(628,363)"/>
<path d="M0 0 C1.32 0.33 2.64 0.66 4 1 C1.69 2.65 -0.62 4.3 -3 6 C-3 3 -3 3 -1.75 1.25 C-1.1725 0.8375 -0.595 0.425 0 0 Z " fill="#326269" transform="translate(757,777)"/>
<path d="M0 0 C0.66 0.33 1.32 0.66 2 1 C0.84826645 3.46800047 -0.04783565 5.04783565 -2 7 C-2.99 6.67 -3.98 6.34 -5 6 C-3.35 4.02 -1.7 2.04 0 0 Z " fill="#285B62" transform="translate(768,765)"/>
<path d="M0 0 C1.32 0.66 2.64 1.32 4 2 C3.01 2.495 3.01 2.495 2 3 C2 3.66 2 4.32 2 5 C0.02 5.99 0.02 5.99 -2 7 C-1.34 4.69 -0.68 2.38 0 0 Z " fill="#E0E7E8" transform="translate(505,708)"/>
<path d="M0 0 C0.66 0.66 1.32 1.32 2 2 C-0.97 4.475 -0.97 4.475 -4 7 C-4.66 6.67 -5.32 6.34 -6 6 C-4.02 4.02 -2.04 2.04 0 0 Z " fill="#33636A" transform="translate(404,503)"/>
<path d="M0 0 C0.66 0.33 1.32 0.66 2 1 C0.68 3.64 -0.64 6.28 -2 9 C-2.33 9 -2.66 9 -3 9 C-2.67 6.69 -2.34 4.38 -2 2 C-1.34 2 -0.68 2 0 2 C0 1.34 0 0.68 0 0 Z " fill="#2D5F66" transform="translate(892,771)"/>
</svg>
